<mxfile host="app.diagrams.net" agent="Mozilla/5.0 (Windows NT 10.0; Win64; x64) AppleWebKit/537.36 (KHTML, like Gecko) Chrome/130.0.0.0 Safari/537.36" version="25.0.3">
  <diagram id="Ht1M8jgEwFfnCIfOTk4-" name="Page-1">
    <mxGraphModel dx="1221" dy="733" grid="1" gridSize="10" guides="1" tooltips="1" connect="1" arrows="1" fold="1" page="1" pageScale="1" pageWidth="827" pageHeight="1169" math="0" shadow="0">
      <root>
        <mxCell id="0" />
        <mxCell id="1" parent="0" />
        <mxCell id="gAv8L8gz2XcpwjfKt5FL-9" style="edgeStyle=orthogonalEdgeStyle;rounded=0;orthogonalLoop=1;jettySize=auto;html=1;" edge="1" parent="1" source="gAv8L8gz2XcpwjfKt5FL-1" target="gAv8L8gz2XcpwjfKt5FL-6">
          <mxGeometry relative="1" as="geometry" />
        </mxCell>
        <mxCell id="gAv8L8gz2XcpwjfKt5FL-1" value="" style="sketch=0;points=[[0,0,0],[0.25,0,0],[0.5,0,0],[0.75,0,0],[1,0,0],[0,1,0],[0.25,1,0],[0.5,1,0],[0.75,1,0],[1,1,0],[0,0.25,0],[0,0.5,0],[0,0.75,0],[1,0.25,0],[1,0.5,0],[1,0.75,0]];outlineConnect=0;fontColor=#232F3E;fillColor=#8C4FFF;strokeColor=#ffffff;dashed=0;verticalLabelPosition=bottom;verticalAlign=top;align=center;html=1;fontSize=12;fontStyle=0;aspect=fixed;shape=mxgraph.aws4.resourceIcon;resIcon=mxgraph.aws4.api_gateway;" vertex="1" parent="1">
          <mxGeometry x="210" y="267" width="78" height="78" as="geometry" />
        </mxCell>
        <mxCell id="gAv8L8gz2XcpwjfKt5FL-2" value="" style="sketch=0;points=[[0,0,0],[0.25,0,0],[0.5,0,0],[0.75,0,0],[1,0,0],[0,1,0],[0.25,1,0],[0.5,1,0],[0.75,1,0],[1,1,0],[0,0.25,0],[0,0.5,0],[0,0.75,0],[1,0.25,0],[1,0.5,0],[1,0.75,0]];outlineConnect=0;fontColor=#232F3E;fillColor=#8C4FFF;strokeColor=#ffffff;dashed=0;verticalLabelPosition=bottom;verticalAlign=top;align=center;html=1;fontSize=12;fontStyle=0;aspect=fixed;shape=mxgraph.aws4.resourceIcon;resIcon=mxgraph.aws4.cloudfront;" vertex="1" parent="1">
          <mxGeometry x="60" y="267" width="78" height="78" as="geometry" />
        </mxCell>
        <mxCell id="gAv8L8gz2XcpwjfKt5FL-3" value="" style="sketch=0;verticalLabelPosition=bottom;sketch=0;aspect=fixed;html=1;verticalAlign=top;strokeColor=none;fillColor=#000000;align=center;outlineConnect=0;pointerEvents=1;shape=mxgraph.citrix2.dns;" vertex="1" parent="1">
          <mxGeometry x="74" y="50" width="50" height="50" as="geometry" />
        </mxCell>
        <mxCell id="gAv8L8gz2XcpwjfKt5FL-4" value="" style="sketch=0;points=[[0,0,0],[0.25,0,0],[0.5,0,0],[0.75,0,0],[1,0,0],[0,1,0],[0.25,1,0],[0.5,1,0],[0.75,1,0],[1,1,0],[0,0.25,0],[0,0.5,0],[0,0.75,0],[1,0.25,0],[1,0.5,0],[1,0.75,0]];outlineConnect=0;fontColor=#232F3E;fillColor=#C925D1;strokeColor=#ffffff;dashed=0;verticalLabelPosition=bottom;verticalAlign=top;align=center;html=1;fontSize=12;fontStyle=0;aspect=fixed;shape=mxgraph.aws4.resourceIcon;resIcon=mxgraph.aws4.dynamodb;" vertex="1" parent="1">
          <mxGeometry x="565" y="267" width="78" height="78" as="geometry" />
        </mxCell>
        <mxCell id="gAv8L8gz2XcpwjfKt5FL-5" value="Create Task" style="outlineConnect=0;dashed=0;verticalLabelPosition=bottom;verticalAlign=top;align=center;html=1;shape=mxgraph.aws3.lambda_function;fillColor=#F58534;gradientColor=none;" vertex="1" parent="1">
          <mxGeometry x="390" y="150" width="69" height="72" as="geometry" />
        </mxCell>
        <mxCell id="gAv8L8gz2XcpwjfKt5FL-12" style="edgeStyle=orthogonalEdgeStyle;rounded=0;orthogonalLoop=1;jettySize=auto;html=1;entryX=0;entryY=0.5;entryDx=0;entryDy=0;entryPerimeter=0;" edge="1" parent="1" source="gAv8L8gz2XcpwjfKt5FL-6" target="gAv8L8gz2XcpwjfKt5FL-4">
          <mxGeometry relative="1" as="geometry">
            <mxPoint x="520" y="306" as="targetPoint" />
          </mxGeometry>
        </mxCell>
        <mxCell id="gAv8L8gz2XcpwjfKt5FL-6" value="Update Task" style="outlineConnect=0;dashed=0;verticalLabelPosition=bottom;verticalAlign=top;align=center;html=1;shape=mxgraph.aws3.lambda_function;fillColor=#F58534;gradientColor=none;" vertex="1" parent="1">
          <mxGeometry x="390" y="270" width="69" height="72" as="geometry" />
        </mxCell>
        <mxCell id="gAv8L8gz2XcpwjfKt5FL-7" value="Delete Task" style="outlineConnect=0;dashed=0;verticalLabelPosition=bottom;verticalAlign=top;align=center;html=1;shape=mxgraph.aws3.lambda_function;fillColor=#F58534;gradientColor=none;" vertex="1" parent="1">
          <mxGeometry x="390" y="388" width="69" height="72" as="geometry" />
        </mxCell>
        <mxCell id="gAv8L8gz2XcpwjfKt5FL-8" style="edgeStyle=orthogonalEdgeStyle;rounded=0;orthogonalLoop=1;jettySize=auto;html=1;entryX=0;entryY=0.5;entryDx=0;entryDy=0;entryPerimeter=0;" edge="1" parent="1" source="gAv8L8gz2XcpwjfKt5FL-1" target="gAv8L8gz2XcpwjfKt5FL-5">
          <mxGeometry relative="1" as="geometry" />
        </mxCell>
        <mxCell id="gAv8L8gz2XcpwjfKt5FL-10" style="edgeStyle=orthogonalEdgeStyle;rounded=0;orthogonalLoop=1;jettySize=auto;html=1;entryX=0;entryY=0.5;entryDx=0;entryDy=0;entryPerimeter=0;" edge="1" parent="1" source="gAv8L8gz2XcpwjfKt5FL-1" target="gAv8L8gz2XcpwjfKt5FL-7">
          <mxGeometry relative="1" as="geometry" />
        </mxCell>
        <mxCell id="gAv8L8gz2XcpwjfKt5FL-11" style="edgeStyle=orthogonalEdgeStyle;rounded=0;orthogonalLoop=1;jettySize=auto;html=1;entryX=0;entryY=0.5;entryDx=0;entryDy=0;entryPerimeter=0;" edge="1" parent="1" source="gAv8L8gz2XcpwjfKt5FL-5" target="gAv8L8gz2XcpwjfKt5FL-4">
          <mxGeometry relative="1" as="geometry" />
        </mxCell>
        <mxCell id="gAv8L8gz2XcpwjfKt5FL-13" style="edgeStyle=orthogonalEdgeStyle;rounded=0;orthogonalLoop=1;jettySize=auto;html=1;entryX=0;entryY=0.5;entryDx=0;entryDy=0;entryPerimeter=0;" edge="1" parent="1" source="gAv8L8gz2XcpwjfKt5FL-7" target="gAv8L8gz2XcpwjfKt5FL-4">
          <mxGeometry relative="1" as="geometry" />
        </mxCell>
      </root>
    </mxGraphModel>
  </diagram>
</mxfile>
